<?xml version='1.0' encoding='UTF-8'?>
<svg width="68.6mm" height="68.6mm" version="1.1" viewBox="0 0 68.6 68.6" fill_color="#07100d" back_color="white" xmlns="http://www.w3.org/2000/svg"><path d="M5.6,5.6H7V7H5.6zM7,5.6H8.4V7H7zM8.4,5.6H9.8V7H8.4zM9.8,5.6H11.2V7H9.8zM11.2,5.6H12.6V7H11.2zM12.6,5.6H14V7H12.6zM14,5.6H15.4V7H14zM19.6,5.6H21V7H19.6zM21,5.6H22.4V7H21zM22.4,5.6H23.8V7H22.4zM28,5.6H29.4V7H28zM29.4,5.6H30.8V7H29.4zM30.8,5.6H32.2V7H30.8zM33.6,5.6H35V7H33.6zM35,5.6H36.4V7H35zM36.4,5.6H37.8V7H36.4zM39.2,5.6H40.6V7H39.2zM42,5.6H43.4V7H42zM46.2,5.6H47.6V7H46.2zM50.4,5.6H51.8V7H50.4zM53.2,5.6H54.6V7H53.2zM54.6,5.6H56V7H54.6zM56,5.6H57.4V7H56zM57.4,5.6H58.8V7H57.4zM58.8,5.6H60.2V7H58.8zM60.2,5.6H61.6V7H60.2zM61.6,5.6H63V7H61.6zM5.6,7H7V8.4H5.6zM14,7H15.4V8.4H14zM18.2,7H19.6V8.4H18.2zM22.4,7H23.8V8.4H22.4zM28,7H29.4V8.4H28zM29.4,7H30.8V8.4H29.4zM30.8,7H32.2V8.4H30.8zM32.2,7H33.6V8.4H32.2zM33.6,7H35V8.4H33.6zM39.2,7H40.6V8.4H39.2zM44.8,7H46.2V8.4H44.8zM47.6,7H49V8.4H47.6zM49,7H50.4V8.4H49zM53.2,7H54.6V8.4H53.2zM61.6,7H63V8.4H61.6zM5.6,8.4H7V9.8H5.6zM8.4,8.4H9.8V9.8H8.4zM9.8,8.4H11.2V9.8H9.8zM11.2,8.4H12.6V9.8H11.2zM14,8.4H15.4V9.8H14zM16.8,8.4H18.2V9.8H16.8zM18.2,8.4H19.6V9.8H18.2zM21,8.4H22.4V9.8H21zM22.4,8.4H23.8V9.8H22.4zM23.8,8.4H25.2V9.8H23.8zM26.6,8.4H28V9.8H26.6zM28,8.4H29.4V9.8H28zM29.4,8.4H30.8V9.8H29.4zM30.8,8.4H32.2V9.8H30.8zM35,8.4H36.4V9.8H35zM37.8,8.4H39.2V9.8H37.8zM43.4,8.4H44.8V9.8H43.4zM49,8.4H50.4V9.8H49zM50.4,8.4H51.8V9.8H50.4zM53.2,8.4H54.6V9.8H53.2zM56,8.4H57.4V9.8H56zM57.4,8.4H58.8V9.8H57.4zM58.8,8.4H60.2V9.8H58.8zM61.6,8.4H63V9.8H61.6zM5.6,9.8H7V11.2H5.6zM8.4,9.8H9.8V11.2H8.4zM9.8,9.8H11.2V11.2H9.8zM11.2,9.8H12.6V11.2H11.2zM14,9.8H15.4V11.2H14zM16.8,9.8H18.2V11.2H16.8zM18.2,9.8H19.6V11.2H18.2zM19.6,9.8H21V11.2H19.6zM21,9.8H22.4V11.2H21zM22.4,9.8H23.8V11.2H22.4zM28,9.8H29.4V11.2H28zM29.4,9.8H30.8V11.2H29.4zM30.8,9.8H32.2V11.2H30.8zM32.2,9.8H33.6V11.2H32.2zM33.6,9.8H35V11.2H33.6zM37.8,9.8H39.2V11.2H37.8zM43.4,9.8H44.8V11.2H43.4zM44.8,9.8H46.2V11.2H44.8zM47.6,9.8H49V11.2H47.6zM49,9.8H50.4V11.2H49zM53.2,9.8H54.6V11.2H53.2zM56,9.8H57.4V11.2H56zM57.4,9.8H58.8V11.2H57.4zM58.8,9.8H60.2V11.2H58.8zM61.6,9.8H63V11.2H61.6zM5.6,11.2H7V12.6H5.6zM8.4,11.2H9.8V12.6H8.4zM9.8,11.2H11.2V12.6H9.8zM11.2,11.2H12.6V12.6H11.2zM14,11.2H15.4V12.6H14zM18.2,11.2H19.6V12.6H18.2zM19.6,11.2H21V12.6H19.6zM21,11.2H22.4V12.6H21zM23.8,11.2H25.2V12.6H23.8zM26.6,11.2H28V12.6H26.6zM28,11.2H29.4V12.6H28zM29.4,11.2H30.8V12.6H29.4zM32.2,11.2H33.6V12.6H32.2zM35,11.2H36.4V12.6H35zM40.6,11.2H42V12.6H40.6zM42,11.2H43.4V12.6H42zM44.8,11.2H46.2V12.6H44.8zM49,11.2H50.4V12.6H49zM53.2,11.2H54.6V12.6H53.2zM56,11.2H57.4V12.6H56zM57.4,11.2H58.8V12.6H57.4zM58.8,11.2H60.2V12.6H58.8zM61.6,11.2H63V12.6H61.6zM5.6,12.6H7V14H5.6zM14,12.6H15.4V14H14zM18.2,12.6H19.6V14H18.2zM19.6,12.6H21V14H19.6zM22.4,12.6H23.8V14H22.4zM30.8,12.6H32.2V14H30.8zM32.2,12.6H33.6V14H32.2zM35,12.6H36.4V14H35zM36.4,12.6H37.8V14H36.4zM37.8,12.6H39.2V14H37.8zM44.8,12.6H46.2V14H44.8zM46.2,12.6H47.6V14H46.2zM50.4,12.6H51.8V14H50.4zM53.2,12.6H54.6V14H53.2zM61.6,12.6H63V14H61.6zM5.6,14H7V15.4H5.6zM7,14H8.4V15.4H7zM8.4,14H9.8V15.4H8.4zM9.8,14H11.2V15.4H9.8zM11.2,14H12.6V15.4H11.2zM12.6,14H14V15.4H12.6zM14,14H15.4V15.4H14zM16.8,14H18.2V15.4H16.8zM19.6,14H21V15.4H19.6zM22.4,14H23.8V15.4H22.4zM25.2,14H26.6V15.4H25.2zM28,14H29.4V15.4H28zM30.8,14H32.2V15.4H30.8zM33.6,14H35V15.4H33.6zM36.4,14H37.8V15.4H36.4zM39.2,14H40.6V15.4H39.2zM42,14H43.4V15.4H42zM44.8,14H46.2V15.4H44.8zM47.6,14H49V15.4H47.6zM50.4,14H51.8V15.4H50.4zM53.2,14H54.6V15.4H53.2zM54.6,14H56V15.4H54.6zM56,14H57.4V15.4H56zM57.4,14H58.8V15.4H57.4zM58.8,14H60.2V15.4H58.8zM60.2,14H61.6V15.4H60.2zM61.6,14H63V15.4H61.6zM22.4,15.4H23.8V16.8H22.4zM23.8,15.4H25.2V16.8H23.8zM25.2,15.4H26.6V16.8H25.2zM28,15.4H29.4V16.8H28zM32.2,15.4H33.6V16.8H32.2zM39.2,15.4H40.6V16.8H39.2zM40.6,15.4H42V16.8H40.6zM44.8,15.4H46.2V16.8H44.8zM49,15.4H50.4V16.8H49zM50.4,15.4H51.8V16.8H50.4zM9.8,16.8H11.2V18.2H9.8zM11.2,16.8H12.6V18.2H11.2zM14,16.8H15.4V18.2H14zM15.4,16.8H16.8V18.2H15.4zM18.2,16.8H19.6V18.2H18.2zM25.2,16.8H26.6V18.2H25.2zM30.8,16.8H32.2V18.2H30.8zM33.6,16.8H35V18.2H33.6zM35,16.8H36.4V18.2H35zM39.2,16.8H40.6V18.2H39.2zM42,16.8H43.4V18.2H42zM44.8,16.8H46.2V18.2H44.8zM46.2,16.8H47.6V18.2H46.2zM49,16.8H50.4V18.2H49zM57.4,16.8H58.8V18.2H57.4zM58.8,16.8H60.2V18.2H58.8zM12.6,18.2H14V19.6H12.6zM19.6,18.2H21V19.6H19.6zM23.8,18.2H25.2V19.6H23.8zM25.2,18.2H26.6V19.6H25.2zM26.6,18.2H28V19.6H26.6zM32.2,18.2H33.6V19.6H32.2zM33.6,18.2H35V19.6H33.6zM39.2,18.2H40.6V19.6H39.2zM43.4,18.2H44.8V19.6H43.4zM47.6,18.2H49V19.6H47.6zM49,18.2H50.4V19.6H49zM54.6,18.2H56V19.6H54.6zM56,18.2H57.4V19.6H56zM7,19.6H8.4V21H7zM8.4,19.6H9.8V21H8.4zM9.8,19.6H11.2V21H9.8zM12.6,19.6H14V21H12.6zM14,19.6H15.4V21H14zM19.6,19.6H21V21H19.6zM21,19.6H22.4V21H21zM22.4,19.6H23.8V21H22.4zM25.2,19.6H26.6V21H25.2zM26.6,19.6H28V21H26.6zM28,19.6H29.4V21H28zM35,19.6H36.4V21H35zM37.8,19.6H39.2V21H37.8zM43.4,19.6H44.8V21H43.4zM47.6,19.6H49V21H47.6zM51.8,19.6H53.2V21H51.8zM56,19.6H57.4V21H56zM58.8,19.6H60.2V21H58.8zM5.6,21H7V22.4H5.6zM7,21H8.4V22.4H7zM8.4,21H9.8V22.4H8.4zM9.8,21H11.2V22.4H9.8zM11.2,21H12.6V22.4H11.2zM12.6,21H14V22.4H12.6zM15.4,21H16.8V22.4H15.4zM16.8,21H18.2V22.4H16.8zM18.2,21H19.6V22.4H18.2zM19.6,21H21V22.4H19.6zM28,21H29.4V22.4H28zM30.8,21H32.2V22.4H30.8zM32.2,21H33.6V22.4H32.2zM37.8,21H39.2V22.4H37.8zM43.4,21H44.8V22.4H43.4zM46.2,21H47.6V22.4H46.2zM47.6,21H49V22.4H47.6zM49,21H50.4V22.4H49zM50.4,21H51.8V22.4H50.4zM51.8,21H53.2V22.4H51.8zM53.2,21H54.6V22.4H53.2zM54.6,21H56V22.4H54.6zM57.4,21H58.8V22.4H57.4zM61.6,21H63V22.4H61.6zM5.6,22.4H7V23.8H5.6zM8.4,22.4H9.8V23.8H8.4zM9.8,22.4H11.2V23.8H9.8zM12.6,22.4H14V23.8H12.6zM14,22.4H15.4V23.8H14zM16.8,22.4H18.2V23.8H16.8zM21,22.4H22.4V23.8H21zM22.4,22.4H23.8V23.8H22.4zM28,22.4H29.4V23.8H28zM29.4,22.4H30.8V23.8H29.4zM30.8,22.4H32.2V23.8H30.8zM35,22.4H36.4V23.8H35zM42,22.4H43.4V23.8H42zM43.4,22.4H44.8V23.8H43.4zM50.4,22.4H51.8V23.8H50.4zM51.8,22.4H53.2V23.8H51.8zM53.2,22.4H54.6V23.8H53.2zM54.6,22.4H56V23.8H54.6zM61.6,22.4H63V23.8H61.6zM7,23.8H8.4V25.2H7zM8.4,23.8H9.8V25.2H8.4zM9.8,23.8H11.2V25.2H9.8zM12.6,23.8H14V25.2H12.6zM15.4,23.8H16.8V25.2H15.4zM16.8,23.8H18.2V25.2H16.8zM19.6,23.8H21V25.2H19.6zM22.4,23.8H23.8V25.2H22.4zM25.2,23.8H26.6V25.2H25.2zM29.4,23.8H30.8V25.2H29.4zM33.6,23.8H35V25.2H33.6zM35,23.8H36.4V25.2H35zM36.4,23.8H37.8V25.2H36.4zM37.8,23.8H39.2V25.2H37.8zM40.6,23.8H42V25.2H40.6zM47.6,23.8H49V25.2H47.6zM49,23.8H50.4V25.2H49zM51.8,23.8H53.2V25.2H51.8zM54.6,23.8H56V25.2H54.6zM56,23.8H57.4V25.2H56zM57.4,23.8H58.8V25.2H57.4zM58.8,23.8H60.2V25.2H58.8zM61.6,23.8H63V25.2H61.6zM5.6,25.2H7V26.6H5.6zM7,25.2H8.4V26.6H7zM8.4,25.2H9.8V26.6H8.4zM11.2,25.2H12.6V26.6H11.2zM14,25.2H15.4V26.6H14zM18.2,25.2H19.6V26.6H18.2zM21,25.2H22.4V26.6H21zM23.8,25.2H25.2V26.6H23.8zM28,25.2H29.4V26.6H28zM33.6,25.2H35V26.6H33.6zM35,25.2H36.4V26.6H35zM36.4,25.2H37.8V26.6H36.4zM40.6,25.2H42V26.6H40.6zM42,25.2H43.4V26.6H42zM43.4,25.2H44.8V26.6H43.4zM46.2,25.2H47.6V26.6H46.2zM47.6,25.2H49V26.6H47.6zM51.8,25.2H53.2V26.6H51.8zM53.2,25.2H54.6V26.6H53.2zM60.2,25.2H61.6V26.6H60.2zM61.6,25.2H63V26.6H61.6zM7,26.6H8.4V28H7zM8.4,26.6H9.8V28H8.4zM9.8,26.6H11.2V28H9.8zM11.2,26.6H12.6V28H11.2zM12.6,26.6H14V28H12.6zM16.8,26.6H18.2V28H16.8zM19.6,26.6H21V28H19.6zM21,26.6H22.4V28H21zM22.4,26.6H23.8V28H22.4zM23.8,26.6H25.2V28H23.8zM28,26.6H29.4V28H28zM32.2,26.6H33.6V28H32.2zM33.6,26.6H35V28H33.6zM39.2,26.6H40.6V28H39.2zM44.8,26.6H46.2V28H44.8zM47.6,26.6H49V28H47.6zM49,26.6H50.4V28H49zM51.8,26.6H53.2V28H51.8zM56,26.6H57.4V28H56zM57.4,26.6H58.8V28H57.4zM58.8,26.6H60.2V28H58.8zM5.6,28H7V29.4H5.6zM8.4,28H9.8V29.4H8.4zM11.2,28H12.6V29.4H11.2zM12.6,28H14V29.4H12.6zM14,28H15.4V29.4H14zM15.4,28H16.8V29.4H15.4zM18.2,28H19.6V29.4H18.2zM19.6,28H21V29.4H19.6zM21,28H22.4V29.4H21zM22.4,28H23.8V29.4H22.4zM25.2,28H26.6V29.4H25.2zM26.6,28H28V29.4H26.6zM28,28H29.4V29.4H28zM29.4,28H30.8V29.4H29.4zM30.8,28H32.2V29.4H30.8zM36.4,28H37.8V29.4H36.4zM39.2,28H40.6V29.4H39.2zM42,28H43.4V29.4H42zM43.4,28H44.8V29.4H43.4zM47.6,28H49V29.4H47.6zM49,28H50.4V29.4H49zM50.4,28H51.8V29.4H50.4zM51.8,28H53.2V29.4H51.8zM60.2,28H61.6V29.4H60.2zM5.6,29.4H7V30.8H5.6zM12.6,29.4H14V30.8H12.6zM15.4,29.4H16.8V30.8H15.4zM16.8,29.4H18.2V30.8H16.8zM19.6,29.4H21V30.8H19.6zM21,29.4H22.4V30.8H21zM22.4,29.4H23.8V30.8H22.4zM25.2,29.4H26.6V30.8H25.2zM29.4,29.4H30.8V30.8H29.4zM32.2,29.4H33.6V30.8H32.2zM33.6,29.4H35V30.8H33.6zM35,29.4H36.4V30.8H35zM36.4,29.4H37.8V30.8H36.4zM37.8,29.4H39.2V30.8H37.8zM42,29.4H43.4V30.8H42zM43.4,29.4H44.8V30.8H43.4zM44.8,29.4H46.2V30.8H44.8zM49,29.4H50.4V30.8H49zM51.8,29.4H53.2V30.8H51.8zM56,29.4H57.4V30.8H56zM57.4,29.4H58.8V30.8H57.4zM58.8,29.4H60.2V30.8H58.8zM7,30.8H8.4V32.2H7zM8.4,30.8H9.8V32.2H8.4zM9.8,30.8H11.2V32.2H9.8zM11.2,30.8H12.6V32.2H11.2zM12.6,30.8H14V32.2H12.6zM14,30.8H15.4V32.2H14zM15.4,30.8H16.8V32.2H15.4zM16.8,30.8H18.2V32.2H16.8zM19.6,30.8H21V32.2H19.6zM21,30.8H22.4V32.2H21zM23.8,30.8H25.2V32.2H23.8zM26.6,30.8H28V32.2H26.6zM29.4,30.8H30.8V32.2H29.4zM32.2,30.8H33.6V32.2H32.2zM35,30.8H36.4V32.2H35zM36.4,30.8H37.8V32.2H36.4zM39.2,30.8H40.6V32.2H39.2zM43.4,30.8H44.8V32.2H43.4zM44.8,30.8H46.2V32.2H44.8zM49,30.8H50.4V32.2H49zM53.2,30.8H54.6V32.2H53.2zM54.6,30.8H56V32.2H54.6zM56,30.8H57.4V32.2H56zM61.6,30.8H63V32.2H61.6zM5.6,32.2H7V33.6H5.6zM7,32.2H8.4V33.6H7zM8.4,32.2H9.8V33.6H8.4zM9.8,32.2H11.2V33.6H9.8zM11.2,32.2H12.6V33.6H11.2zM15.4,32.2H16.8V33.6H15.4zM18.2,32.2H19.6V33.6H18.2zM19.6,32.2H21V33.6H19.6zM23.8,32.2H25.2V33.6H23.8zM25.2,32.2H26.6V33.6H25.2zM29.4,32.2H30.8V33.6H29.4zM32.2,32.2H33.6V33.6H32.2zM33.6,32.2H35V33.6H33.6zM36.4,32.2H37.8V33.6H36.4zM39.2,32.2H40.6V33.6H39.2zM40.6,32.2H42V33.6H40.6zM43.4,32.2H44.8V33.6H43.4zM44.8,32.2H46.2V33.6H44.8zM46.2,32.2H47.6V33.6H46.2zM47.6,32.2H49V33.6H47.6zM49,32.2H50.4V33.6H49zM50.4,32.2H51.8V33.6H50.4zM51.8,32.2H53.2V33.6H51.8zM56,32.2H57.4V33.6H56zM58.8,32.2H60.2V33.6H58.8zM61.6,32.2H63V33.6H61.6zM7,33.6H8.4V35H7zM9.8,33.6H11.2V35H9.8zM11.2,33.6H12.6V35H11.2zM14,33.6H15.4V35H14zM15.4,33.6H16.8V35H15.4zM16.8,33.6H18.2V35H16.8zM18.2,33.6H19.6V35H18.2zM21,33.6H22.4V35H21zM22.4,33.6H23.8V35H22.4zM25.2,33.6H26.6V35H25.2zM26.6,33.6H28V35H26.6zM28,33.6H29.4V35H28zM32.2,33.6H33.6V35H32.2zM33.6,33.6H35V35H33.6zM35,33.6H36.4V35H35zM40.6,33.6H42V35H40.6zM42,33.6H43.4V35H42zM43.4,33.6H44.8V35H43.4zM44.8,33.6H46.2V35H44.8zM49,33.6H50.4V35H49zM53.2,33.6H54.6V35H53.2zM56,33.6H57.4V35H56zM57.4,33.6H58.8V35H57.4zM58.8,33.6H60.2V35H58.8zM7,35H8.4V36.4H7zM15.4,35H16.8V36.4H15.4zM16.8,35H18.2V36.4H16.8zM19.6,35H21V36.4H19.6zM21,35H22.4V36.4H21zM22.4,35H23.8V36.4H22.4zM26.6,35H28V36.4H26.6zM30.8,35H32.2V36.4H30.8zM36.4,35H37.8V36.4H36.4zM43.4,35H44.8V36.4H43.4zM47.6,35H49V36.4H47.6zM49,35H50.4V36.4H49zM51.8,35H53.2V36.4H51.8zM54.6,35H56V36.4H54.6zM58.8,35H60.2V36.4H58.8zM7,36.4H8.4V37.8H7zM9.8,36.4H11.2V37.8H9.8zM14,36.4H15.4V37.8H14zM15.4,36.4H16.8V37.8H15.4zM16.8,36.4H18.2V37.8H16.8zM18.2,36.4H19.6V37.8H18.2zM25.2,36.4H26.6V37.8H25.2zM26.6,36.4H28V37.8H26.6zM28,36.4H29.4V37.8H28zM32.2,36.4H33.6V37.8H32.2zM36.4,36.4H37.8V37.8H36.4zM37.8,36.4H39.2V37.8H37.8zM43.4,36.4H44.8V37.8H43.4zM44.8,36.4H46.2V37.8H44.8zM46.2,36.4H47.6V37.8H46.2zM54.6,36.4H56V37.8H54.6zM57.4,36.4H58.8V37.8H57.4zM5.6,37.8H7V39.2H5.6zM9.8,37.8H11.2V39.2H9.8zM16.8,37.8H18.2V39.2H16.8zM19.6,37.8H21V39.2H19.6zM22.4,37.8H23.8V39.2H22.4zM23.8,37.8H25.2V39.2H23.8zM29.4,37.8H30.8V39.2H29.4zM33.6,37.8H35V39.2H33.6zM35,37.8H36.4V39.2H35zM37.8,37.8H39.2V39.2H37.8zM40.6,37.8H42V39.2H40.6zM46.2,37.8H47.6V39.2H46.2zM50.4,37.8H51.8V39.2H50.4zM53.2,37.8H54.6V39.2H53.2zM60.2,37.8H61.6V39.2H60.2zM8.4,39.2H9.8V40.6H8.4zM12.6,39.2H14V40.6H12.6zM14,39.2H15.4V40.6H14zM15.4,39.2H16.8V40.6H15.4zM19.6,39.2H21V40.6H19.6zM22.4,39.2H23.8V40.6H22.4zM30.8,39.2H32.2V40.6H30.8zM32.2,39.2H33.6V40.6H32.2zM36.4,39.2H37.8V40.6H36.4zM49,39.2H50.4V40.6H49zM50.4,39.2H51.8V40.6H50.4zM53.2,39.2H54.6V40.6H53.2zM54.6,39.2H56V40.6H54.6zM57.4,39.2H58.8V40.6H57.4zM5.6,40.6H7V42H5.6zM7,40.6H8.4V42H7zM11.2,40.6H12.6V42H11.2zM15.4,40.6H16.8V42H15.4zM18.2,40.6H19.6V42H18.2zM22.4,40.6H23.8V42H22.4zM25.2,40.6H26.6V42H25.2zM26.6,40.6H28V42H26.6zM30.8,40.6H32.2V42H30.8zM33.6,40.6H35V42H33.6zM35,40.6H36.4V42H35zM36.4,40.6H37.8V42H36.4zM40.6,40.6H42V42H40.6zM43.4,40.6H44.8V42H43.4zM44.8,40.6H46.2V42H44.8zM47.6,40.6H49V42H47.6zM50.4,40.6H51.8V42H50.4zM53.2,40.6H54.6V42H53.2zM54.6,40.6H56V42H54.6zM56,40.6H57.4V42H56zM58.8,40.6H60.2V42H58.8zM60.2,40.6H61.6V42H60.2zM61.6,40.6H63V42H61.6zM5.6,42H7V43.4H5.6zM7,42H8.4V43.4H7zM9.8,42H11.2V43.4H9.8zM11.2,42H12.6V43.4H11.2zM14,42H15.4V43.4H14zM15.4,42H16.8V43.4H15.4zM16.8,42H18.2V43.4H16.8zM21,42H22.4V43.4H21zM23.8,42H25.2V43.4H23.8zM28,42H29.4V43.4H28zM29.4,42H30.8V43.4H29.4zM30.8,42H32.2V43.4H30.8zM32.2,42H33.6V43.4H32.2zM35,42H36.4V43.4H35zM40.6,42H42V43.4H40.6zM42,42H43.4V43.4H42zM43.4,42H44.8V43.4H43.4zM46.2,42H47.6V43.4H46.2zM47.6,42H49V43.4H47.6zM49,42H50.4V43.4H49zM50.4,42H51.8V43.4H50.4zM57.4,42H58.8V43.4H57.4zM61.6,42H63V43.4H61.6zM5.6,43.4H7V44.8H5.6zM7,43.4H8.4V44.8H7zM9.8,43.4H11.2V44.8H9.8zM11.2,43.4H12.6V44.8H11.2zM12.6,43.4H14V44.8H12.6zM15.4,43.4H16.8V44.8H15.4zM16.8,43.4H18.2V44.8H16.8zM18.2,43.4H19.6V44.8H18.2zM22.4,43.4H23.8V44.8H22.4zM25.2,43.4H26.6V44.8H25.2zM26.6,43.4H28V44.8H26.6zM28,43.4H29.4V44.8H28zM29.4,43.4H30.8V44.8H29.4zM32.2,43.4H33.6V44.8H32.2zM33.6,43.4H35V44.8H33.6zM35,43.4H36.4V44.8H35zM36.4,43.4H37.8V44.8H36.4zM37.8,43.4H39.2V44.8H37.8zM43.4,43.4H44.8V44.8H43.4zM49,43.4H50.4V44.8H49zM54.6,43.4H56V44.8H54.6zM56,43.4H57.4V44.8H56zM57.4,43.4H58.8V44.8H57.4zM58.8,43.4H60.2V44.8H58.8zM60.2,43.4H61.6V44.8H60.2zM9.8,44.8H11.2V46.2H9.8zM11.2,44.8H12.6V46.2H11.2zM12.6,44.8H14V46.2H12.6zM14,44.8H15.4V46.2H14zM15.4,44.8H16.8V46.2H15.4zM21,44.8H22.4V46.2H21zM22.4,44.8H23.8V46.2H22.4zM25.2,44.8H26.6V46.2H25.2zM28,44.8H29.4V46.2H28zM35,44.8H36.4V46.2H35zM37.8,44.8H39.2V46.2H37.8zM42,44.8H43.4V46.2H42zM49,44.8H50.4V46.2H49zM53.2,44.8H54.6V46.2H53.2zM57.4,44.8H58.8V46.2H57.4zM5.6,46.2H7V47.6H5.6zM9.8,46.2H11.2V47.6H9.8zM15.4,46.2H16.8V47.6H15.4zM18.2,46.2H19.6V47.6H18.2zM22.4,46.2H23.8V47.6H22.4zM25.2,46.2H26.6V47.6H25.2zM26.6,46.2H28V47.6H26.6zM28,46.2H29.4V47.6H28zM29.4,46.2H30.8V47.6H29.4zM37.8,46.2H39.2V47.6H37.8zM39.2,46.2H40.6V47.6H39.2zM46.2,46.2H47.6V47.6H46.2zM47.6,46.2H49V47.6H47.6zM53.2,46.2H54.6V47.6H53.2zM56,46.2H57.4V47.6H56zM58.8,46.2H60.2V47.6H58.8zM5.6,47.6H7V49H5.6zM7,47.6H8.4V49H7zM8.4,47.6H9.8V49H8.4zM11.2,47.6H12.6V49H11.2zM12.6,47.6H14V49H12.6zM14,47.6H15.4V49H14zM15.4,47.6H16.8V49H15.4zM21,47.6H22.4V49H21zM23.8,47.6H25.2V49H23.8zM25.2,47.6H26.6V49H25.2zM33.6,47.6H35V49H33.6zM44.8,47.6H46.2V49H44.8zM46.2,47.6H47.6V49H46.2zM47.6,47.6H49V49H47.6zM49,47.6H50.4V49H49zM51.8,47.6H53.2V49H51.8zM58.8,47.6H60.2V49H58.8zM61.6,47.6H63V49H61.6zM5.6,49H7V50.4H5.6zM7,49H8.4V50.4H7zM8.4,49H9.8V50.4H8.4zM11.2,49H12.6V50.4H11.2zM19.6,49H21V50.4H19.6zM26.6,49H28V50.4H26.6zM29.4,49H30.8V50.4H29.4zM30.8,49H32.2V50.4H30.8zM39.2,49H40.6V50.4H39.2zM40.6,49H42V50.4H40.6zM42,49H43.4V50.4H42zM43.4,49H44.8V50.4H43.4zM44.8,49H46.2V50.4H44.8zM47.6,49H49V50.4H47.6zM49,49H50.4V50.4H49zM50.4,49H51.8V50.4H50.4zM53.2,49H54.6V50.4H53.2zM54.6,49H56V50.4H54.6zM57.4,49H58.8V50.4H57.4zM58.8,49H60.2V50.4H58.8zM60.2,49H61.6V50.4H60.2zM5.6,50.4H7V51.8H5.6zM7,50.4H8.4V51.8H7zM9.8,50.4H11.2V51.8H9.8zM11.2,50.4H12.6V51.8H11.2zM14,50.4H15.4V51.8H14zM15.4,50.4H16.8V51.8H15.4zM18.2,50.4H19.6V51.8H18.2zM23.8,50.4H25.2V51.8H23.8zM25.2,50.4H26.6V51.8H25.2zM26.6,50.4H28V51.8H26.6zM28,50.4H29.4V51.8H28zM32.2,50.4H33.6V51.8H32.2zM35,50.4H36.4V51.8H35zM37.8,50.4H39.2V51.8H37.8zM40.6,50.4H42V51.8H40.6zM46.2,50.4H47.6V51.8H46.2zM47.6,50.4H49V51.8H47.6zM49,50.4H50.4V51.8H49zM50.4,50.4H51.8V51.8H50.4zM51.8,50.4H53.2V51.8H51.8zM53.2,50.4H54.6V51.8H53.2zM54.6,50.4H56V51.8H54.6zM56,50.4H57.4V51.8H56zM57.4,50.4H58.8V51.8H57.4zM58.8,50.4H60.2V51.8H58.8zM60.2,50.4H61.6V51.8H60.2zM61.6,50.4H63V51.8H61.6zM16.8,51.8H18.2V53.2H16.8zM21,51.8H22.4V53.2H21zM25.2,51.8H26.6V53.2H25.2zM29.4,51.8H30.8V53.2H29.4zM30.8,51.8H32.2V53.2H30.8zM35,51.8H36.4V53.2H35zM37.8,51.8H39.2V53.2H37.8zM40.6,51.8H42V53.2H40.6zM42,51.8H43.4V53.2H42zM43.4,51.8H44.8V53.2H43.4zM44.8,51.8H46.2V53.2H44.8zM50.4,51.8H51.8V53.2H50.4zM56,51.8H57.4V53.2H56zM57.4,51.8H58.8V53.2H57.4zM5.6,53.2H7V54.6H5.6zM7,53.2H8.4V54.6H7zM8.4,53.2H9.8V54.6H8.4zM9.8,53.2H11.2V54.6H9.8zM11.2,53.2H12.6V54.6H11.2zM12.6,53.2H14V54.6H12.6zM14,53.2H15.4V54.6H14zM16.8,53.2H18.2V54.6H16.8zM18.2,53.2H19.6V54.6H18.2zM21,53.2H22.4V54.6H21zM26.6,53.2H28V54.6H26.6zM28,53.2H29.4V54.6H28zM30.8,53.2H32.2V54.6H30.8zM32.2,53.2H33.6V54.6H32.2zM37.8,53.2H39.2V54.6H37.8zM40.6,53.2H42V54.6H40.6zM43.4,53.2H44.8V54.6H43.4zM46.2,53.2H47.6V54.6H46.2zM47.6,53.2H49V54.6H47.6zM49,53.2H50.4V54.6H49zM50.4,53.2H51.8V54.6H50.4zM53.2,53.2H54.6V54.6H53.2zM56,53.2H57.4V54.6H56zM60.2,53.2H61.6V54.6H60.2zM5.6,54.6H7V56H5.6zM14,54.6H15.4V56H14zM18.2,54.6H19.6V56H18.2zM21,54.6H22.4V56H21zM22.4,54.6H23.8V56H22.4zM26.6,54.6H28V56H26.6zM28,54.6H29.4V56H28zM33.6,54.6H35V56H33.6zM35,54.6H36.4V56H35zM37.8,54.6H39.2V56H37.8zM39.2,54.6H40.6V56H39.2zM43.4,54.6H44.8V56H43.4zM44.8,54.6H46.2V56H44.8zM46.2,54.6H47.6V56H46.2zM49,54.6H50.4V56H49zM50.4,54.6H51.8V56H50.4zM56,54.6H57.4V56H56zM57.4,54.6H58.8V56H57.4zM60.2,54.6H61.6V56H60.2zM61.6,54.6H63V56H61.6zM5.6,56H7V57.4H5.6zM8.4,56H9.8V57.4H8.4zM9.8,56H11.2V57.4H9.8zM11.2,56H12.6V57.4H11.2zM14,56H15.4V57.4H14zM16.8,56H18.2V57.4H16.8zM18.2,56H19.6V57.4H18.2zM21,56H22.4V57.4H21zM23.8,56H25.2V57.4H23.8zM25.2,56H26.6V57.4H25.2zM42,56H43.4V57.4H42zM43.4,56H44.8V57.4H43.4zM44.8,56H46.2V57.4H44.8zM46.2,56H47.6V57.4H46.2zM47.6,56H49V57.4H47.6zM49,56H50.4V57.4H49zM50.4,56H51.8V57.4H50.4zM51.8,56H53.2V57.4H51.8zM53.2,56H54.6V57.4H53.2zM54.6,56H56V57.4H54.6zM56,56H57.4V57.4H56zM60.2,56H61.6V57.4H60.2zM61.6,56H63V57.4H61.6zM5.6,57.4H7V58.8H5.6zM8.4,57.4H9.8V58.8H8.4zM9.8,57.4H11.2V58.8H9.8zM11.2,57.4H12.6V58.8H11.2zM14,57.4H15.4V58.8H14zM16.8,57.4H18.2V58.8H16.8zM18.2,57.4H19.6V58.8H18.2zM25.2,57.4H26.6V58.8H25.2zM26.6,57.4H28V58.8H26.6zM28,57.4H29.4V58.8H28zM33.6,57.4H35V58.8H33.6zM35,57.4H36.4V58.8H35zM42,57.4H43.4V58.8H42zM43.4,57.4H44.8V58.8H43.4zM46.2,57.4H47.6V58.8H46.2zM50.4,57.4H51.8V58.8H50.4zM54.6,57.4H56V58.8H54.6zM61.6,57.4H63V58.8H61.6zM5.6,58.8H7V60.2H5.6zM8.4,58.8H9.8V60.2H8.4zM9.8,58.8H11.2V60.2H9.8zM11.2,58.8H12.6V60.2H11.2zM14,58.8H15.4V60.2H14zM18.2,58.8H19.6V60.2H18.2zM21,58.8H22.4V60.2H21zM22.4,58.8H23.8V60.2H22.4zM26.6,58.8H28V60.2H26.6zM28,58.8H29.4V60.2H28zM29.4,58.8H30.8V60.2H29.4zM33.6,58.8H35V60.2H33.6zM35,58.8H36.4V60.2H35zM36.4,58.8H37.8V60.2H36.4zM39.2,58.8H40.6V60.2H39.2zM42,58.8H43.4V60.2H42zM43.4,58.8H44.8V60.2H43.4zM44.8,58.8H46.2V60.2H44.8zM49,58.8H50.4V60.2H49zM50.4,58.8H51.8V60.2H50.4zM51.8,58.8H53.2V60.2H51.8zM54.6,58.8H56V60.2H54.6zM56,58.8H57.4V60.2H56zM58.8,58.8H60.2V60.2H58.8zM60.2,58.8H61.6V60.2H60.2zM61.6,58.8H63V60.2H61.6zM5.6,60.2H7V61.6H5.6zM14,60.2H15.4V61.6H14zM18.2,60.2H19.6V61.6H18.2zM22.4,60.2H23.8V61.6H22.4zM23.8,60.2H25.2V61.6H23.8zM28,60.2H29.4V61.6H28zM29.4,60.2H30.8V61.6H29.4zM33.6,60.2H35V61.6H33.6zM35,60.2H36.4V61.6H35zM37.8,60.2H39.2V61.6H37.8zM40.6,60.2H42V61.6H40.6zM44.8,60.2H46.2V61.6H44.8zM53.2,60.2H54.6V61.6H53.2zM56,60.2H57.4V61.6H56zM58.8,60.2H60.2V61.6H58.8zM61.6,60.2H63V61.6H61.6zM5.6,61.6H7V63H5.6zM7,61.6H8.4V63H7zM8.4,61.6H9.8V63H8.4zM9.8,61.6H11.2V63H9.8zM11.2,61.6H12.6V63H11.2zM12.6,61.6H14V63H12.6zM14,61.6H15.4V63H14zM21,61.6H22.4V63H21zM23.8,61.6H25.2V63H23.8zM28,61.6H29.4V63H28zM32.2,61.6H33.6V63H32.2zM33.6,61.6H35V63H33.6zM36.4,61.6H37.8V63H36.4zM42,61.6H43.4V63H42zM49,61.6H50.4V63H49zM50.4,61.6H51.8V63H50.4zM53.2,61.6H54.6V63H53.2zM56,61.6H57.4V63H56zM58.8,61.6H60.2V63H58.8z" id="qr-path" fill="#000000" fill-opacity="1" fill-rule="nonzero" stroke="none" /></svg>